<svg xmlns="http://www.w3.org/2000/svg"><symbol width="16" viewBox="0 0 16 16" height="16" id="dmp_ico-camera"><path d="m6 4.5a2.5 2.5 0 1 1 5 0 2.5 2.5 0 0 1 -5 0zm-6 0a2.5 2.5 0 1 1 5 0 2.5 2.5 0 0 1 -5 0zm12 5v-1.5c0-0.55-0.45-1-1-1h-10c-0.55 0-1 0.45-1 1v5c0 0.55 0.45 1 1 1h10c0.55 0 1-0.45 1-1v-1.5l4 2.5v-7l-4 2.5zm-2 2.5h-8v-3h8v3z"/></symbol><symbol width="16" viewBox="0 0 16 16" height="16" id="dmp_ico-download"><path d="m9 4l-2-2h-7v13h16v-11h-7zm-1 9.5l-3.5-3.5h2.5v-4h2v4h2.5l-3.5 3.5z"/></symbol><symbol width="16" viewBox="0 0 16 16" height="16" id="dmp_ico-upload"><path d="m9 4l-2-2h-7v13h16v-11h-7zm-1 3.5l3.5 3.5h-2.5v4h-2v-4h-2.5l3.5-3.5z"/></symbol><symbol width="16" viewBox="0 0 16 16" height="16" id="dmp_ico-list"><path d="m0 0h4v4h-4zm6 1h10v2h-10zm-6 5h4v4h-4zm6 1h10v2h-10zm-6 5h4v4h-4zm6 1h10v2h-10z"/></symbol><symbol width="16" viewBox="0 0 16 16" height="16" id="dmp_ico-enter"><path d="m6 8h-5v-2h5v-2l3 3-3 3zm10-8v13l-6 3v-3h-6v-4h1v3h5v-9l4-2h-9v4h-1v-5z"/></symbol><symbol width="16" viewBox="0 0 16 16" height="16" id="dmp_ico-exit"><path d="m12 10v-2h-5v-2h5v-2l3 3zm-1-1v4h-5v3l-6-3v-13h11v5h-1v-4h-8l4 2v9h4v-3z"/></symbol><symbol width="16" viewBox="0 0 16 16" height="16" id="dmp_ico-left"><path d="m6.293 13.707l-5-5a0.999 0.999 0 0 1 0 -1.414l5-5a0.999 0.999 0 1 1 1.414 1.414l-3.293 3.293h9.586a1 1 0 0 1 0 2h-9.586l3.293 3.293a0.997 0.997 0 0 1 0 1.414 0.999 0.999 0 0 1 -1.414 0z"/></symbol><symbol xmlns="http://www.w3.org/2000/svg" width="16" height="16" viewBox="0 0 16 16" id="dmp_ico-trash"><path d="M2 5v10c0 .55.45 1 1 1h9c.55 0 1-.45 1-1V5H2zm3 9H4V7h1v7zm2 0H6V7h1v7zm2 0H8V7h1v7zm2 0h-1V7h1v7zM13.25 2H10V.75A.753.753 0 0 0 9.25 0h-3.5A.753.753 0 0 0 5 .75V2H1.75a.752.752 0 0 0-.75.75V4h13V2.75a.752.752 0 0 0-.75-.75zM9 2H6v-.987h3V2z"/></symbol><symbol xmlns="http://www.w3.org/2000/svg" preserveAspectRatio="xMinYMin" viewBox="0 0 266.6 266.6" id="dmp_ico-logo"><path d="M154.4 125.9c-19.7 0-34.9 16-34.9 34.9 0 19.7 15.2 34.7 36.5 34.7 17.9 0 32.8-14.7 32.8-34.1 0-20.3-15-35.5-34.4-35.5zM245.6 0H21C9.5 0 0 9.5 0 21v224.5c0 11.6 9.5 21 21 21h224.5c11.6 0 21-9.5 21-21V21c.1-11.5-9.4-21-20.9-21zm-16.9 232.2h-40.2v-15.8c-12.3 12.1-24.9 16.5-41.7 16.5-17.1 0-31.8-5.5-44.1-16.5C86.4 202.1 78 183.2 78 161.1c0-20.2 7.9-38.3 22.6-52.5 13.1-12.9 29.1-19.4 47-19.4 17.1 0 30.2 5.8 39.6 17.8V45.6l41.5-8.6v195.2z"/></symbol></svg>
