<svg xmlns="http://www.w3.org/2000/svg" preserveAspectRatio="xMinYMin" viewBox="0 0 266.6 266.6"><path d="M154.4 125.9c-19.7 0-34.9 16-34.9 34.9 0 19.7 15.2 34.7 36.5 34.7 17.9 0 32.8-14.7 32.8-34.1 0-20.3-15-35.5-34.4-35.5zM245.6 0H21C9.5 0 0 9.5 0 21v224.5c0 11.6 9.5 21 21 21h224.5c11.6 0 21-9.5 21-21V21c.1-11.5-9.4-21-20.9-21zm-16.9 232.2h-40.2v-15.8c-12.3 12.1-24.9 16.5-41.7 16.5-17.1 0-31.8-5.5-44.1-16.5C86.4 202.1 78 183.2 78 161.1c0-20.2 7.9-38.3 22.6-52.5 13.1-12.9 29.1-19.4 47-19.4 17.1 0 30.2 5.8 39.6 17.8V45.6l41.5-8.6v195.2z"/></svg>